<?xml version="1.0" standalone="no"?><!DOCTYPE svg PUBLIC "-//W3C//DTD SVG 1.1//EN" "http://www.w3.org/Graphics/SVG/1.1/DTD/svg11.dtd"><svg t="1618210852419" class="icon" viewBox="0 0 1024 1024" version="1.1" xmlns="http://www.w3.org/2000/svg" p-id="2085" xmlns:xlink="http://www.w3.org/1999/xlink" width="200" height="200"><defs><style type="text/css"></style></defs><path d="M672 128 640 128 256 128C217.6 128 192 153.6 192 192l0 640c0 38.4 25.6 64 64 64l512 0c38.4 0 64-25.6 64-64L832 320 832 288 672 128zM800 819.2c0 25.6-19.2 51.2-51.2 51.2L268.8 870.4c-25.6 0-51.2-19.2-51.2-51.2L217.6 204.8c0-25.6 19.2-51.2 51.2-51.2L640 153.6 640 256c0 38.4 25.6 64 64 64l96 0L800 819.2zM716.8 288c-25.6 0-51.2-19.2-51.2-51.2L665.6 160l128 128L716.8 288z" p-id="2086"></path><path d="M691.2 416 332.8 416C326.4 416 320 409.6 320 403.2l0 0C320 390.4 326.4 384 332.8 384l352 0C697.6 384 704 390.4 704 403.2l0 0C704 409.6 697.6 416 691.2 416z" p-id="2087"></path><path d="M691.2 563.2 332.8 563.2C326.4 563.2 320 550.4 320 544l0 0c0-6.4 6.4-12.8 12.8-12.8l352 0c6.4 0 12.8 6.4 12.8 12.8l0 0C704 550.4 697.6 563.2 691.2 563.2z" p-id="2088"></path><path d="M499.2 704 332.8 704C326.4 704 320 697.6 320 684.8l0 0c0-6.4 6.4-12.8 12.8-12.8l160 0c6.4 0 12.8 6.4 12.8 12.8l0 0C512 697.6 505.6 704 499.2 704z" p-id="2089"></path></svg>