<?xml version="1.0" standalone="no"?><!DOCTYPE svg PUBLIC "-//W3C//DTD SVG 1.1//EN" "http://www.w3.org/Graphics/SVG/1.1/DTD/svg11.dtd"><svg t="1617764538854" class="icon" viewBox="0 0 1024 1024" version="1.1" xmlns="http://www.w3.org/2000/svg" p-id="1772" xmlns:xlink="http://www.w3.org/1999/xlink" width="200" height="200"><defs><style type="text/css"></style></defs><path d="M1003.86 20.14a27.77 27.77 0 0 0-39.28 0L623.11 361.61V95.33a27.78 27.78 0 1 0-55.56 0v333.34a27.88 27.88 0 0 0 27.78 27.78h333.34a27.78 27.78 0 0 0 0-55.56H662.39l341.47-341.47a27.77 27.77 0 0 0 0-39.28zM439.27 569.69a27.77 27.77 0 0 0-10.6-2.14H95.33a27.78 27.78 0 1 0 0 55.56h266.28L20.14 964.58a27.77 27.77 0 1 0 39.28 39.28l341.47-341.47v266.28a27.78 27.78 0 0 0 55.56 0V595.33a27.88 27.88 0 0 0-17.17-25.64z" p-id="1773"></path></svg>